<svg id="winterinstruments_Image" data-name="winterinstruments Image" xmlns="http://www.w3.org/2000/svg" viewBox="0 0 163.2 123.84"><defs><style>.cls-1{fill:#fff;}</style></defs><path class="cls-1" d="M163.2,123.84H0V0H163.2ZM15.36,120H53.83c2.83-20.3,5.67-40.59,8.53-61,2.44,20.51,5.33,40.84,9.23,61a2.18,2.18,0,0,0,.33.07q18.72,0,37.44,0c.92,0,1-.51,1-1.2.15-1.81.33-3.61.54-5.41.27-2.39.61-4.76.88-7.14s.48-4.79.76-7.17.63-5,.93-7.49c.27-2.31.48-4.62.75-6.93.29-2.46.64-4.91.92-7.37s.49-4.7.77-7,.63-4.83.91-7.25.47-4.7.75-7c.37-3.12.81-6.24,1.17-9.36.28-2.39.47-4.79.75-7.17.36-3,.8-6.08,1.18-9.12.33-2.69.65-5.39.94-8.09.09-.81.18-1.55-.94-2a228.22,228.22,0,0,0-26.5-8.62c-.56-.15-1.14-.23-1.76-.36-.35,2.54-.72,4.95-1,7.36-.36,3-.64,5.95-1,8.92-.37,3.13-.82,6.24-1.17,9.36-.3,2.75-.47,5.51-.74,8.26-.37,3.72-.82,7.43-1.18,11.16s-.69,7.63-1,11.45c-.28,4-.48,8.06-.74,12.1-.08,1.29-.22,2.58-.34,3.88-.14-.82-.08-1.65-.15-2.47-.29-3.54-.65-7.07-.93-10.61C84,68,84,65.28,83.75,62.6c-.28-3.54-.64-7.08-1-10.61-.25-3-.48-6-.72-9-.32-4.1-.63-8.19-1-12.29-.23-2.79-.49-5.58-.71-8.38q-.51-6.25-1-12.53C79.37,8.74,79,8.07,77.84,8c-1-.09-2-.38-3.07-.51-7.48-1-15-1.92-22.45-2.82-2-.24-4.12-.26-6.16-.38-.44,3.07-.89,5.94-1.26,8.82s-.64,5.79-1,8.68c-.45,3.58-1,7.16-1.41,10.75-.37,3.17-.63,6.35-1,9.52-.46,4.19-1,8.37-1.42,12.55-.36,3.42-.69,6.83-1,10.25-.28,3.63-.48,7.27-.73,10.9-.1,1.38-.23,2.77-.35,4.15-.27-1.51-.48-3-.6-4.54-.34-4.13-.65-8.27-1-12.4-.24-3-.5-6-.71-9-.26-3.63-.49-7.27-.73-10.9-.08-1.18-.15-2.37-.25-3.55-.31-3.46-.66-6.91-.94-10.37-.21-2.61-.31-5.22-.5-7.83-.29-3.93-.62-7.87-1-11.81-.16-1.87-.36-3.74-.55-5.65A242.71,242.71,0,0,0,2,5.47C6.45,43.75,10.9,81.8,15.36,120Zm103.56,0h32.44c.2,0,.45.07.59,0s.63-.41.66-.66c.29-2.38.51-4.78.75-7.17.17-1.64.33-3.29.52-4.93.29-2.54.62-5.07.92-7.61.19-1.69.31-3.38.5-5.06.3-2.5.65-5,.93-7.49s.49-4.78.75-7.17c.3-2.66.64-5.31.94-8,.26-2.3.48-4.62.75-6.93.29-2.61.62-5.23.93-7.84.19-1.65.35-3.29.53-4.94.3-2.57.57-5.16.93-7.72a2.36,2.36,0,0,0-1.21-2.43A161.32,161.32,0,0,0,137,27.7c-2.14-1.11-4.32-2.14-6.65-3.29C126.51,56.39,122.73,88.12,118.92,120Z"/><path d="M15.36,120C10.9,81.8,6.45,43.75,2,5.47A242.71,242.71,0,0,1,31.85,3.85c.19,1.91.39,3.78.55,5.65.33,3.94.66,7.88,1,11.81.19,2.61.29,5.22.5,7.83.28,3.46.63,6.91.94,10.37.1,1.18.17,2.37.25,3.55.24,3.63.47,7.27.73,10.9.21,3,.47,6,.71,9,.32,4.13.63,8.27,1,12.4.12,1.52.33,3,.6,4.54.12-1.38.25-2.77.35-4.15.25-3.63.45-7.27.73-10.9.27-3.42.6-6.83,1-10.25.44-4.18,1-8.36,1.42-12.55.35-3.17.61-6.35,1-9.52.43-3.59,1-7.17,1.41-10.75.36-2.89.63-5.79,1-8.68s.82-5.75,1.26-8.82c2,.12,4.11.14,6.16.38,7.49.9,15,1.87,22.45,2.82,1,.13,2,.42,3.07.51,1.19.1,1.53.77,1.61,1.84q.45,6.27,1,12.53c.22,2.8.48,5.59.71,8.38.33,4.1.64,8.19,1,12.29.24,3,.47,6,.72,9,.31,3.53.67,7.07,1,10.61.21,2.68.29,5.38.5,8.06.28,3.54.64,7.07.93,10.61.07.82,0,1.65.15,2.47.12-1.3.26-2.59.34-3.88.26-4,.46-8.07.74-12.1.27-3.82.6-7.64,1-11.45s.81-7.44,1.18-11.16c.27-2.75.44-5.51.74-8.26.35-3.12.8-6.23,1.17-9.36.35-3,.63-6,1-8.92.29-2.41.66-4.82,1-7.36.62.13,1.2.21,1.76.36a228.22,228.22,0,0,1,26.5,8.62c1.12.43,1,1.17.94,2-.29,2.7-.61,5.4-.94,8.09-.38,3-.82,6.08-1.18,9.12-.28,2.38-.47,4.78-.75,7.17-.36,3.12-.8,6.24-1.17,9.36-.28,2.35-.47,4.7-.75,7s-.63,4.83-.91,7.25-.49,4.7-.77,7-.63,4.91-.92,7.37c-.27,2.31-.48,4.62-.75,6.93-.3,2.5-.65,5-.93,7.49s-.48,4.78-.76,7.17-.61,4.75-.88,7.14c-.21,1.8-.39,3.6-.54,5.41-.06.69-.13,1.2-1,1.2q-18.72,0-37.44,0a2.18,2.18,0,0,1-.33-.07c-3.9-20.13-6.79-40.46-9.23-61-2.86,20.42-5.7,40.71-8.53,61Z"/><path d="M118.92,120c3.81-31.88,7.59-63.61,11.41-95.59,2.33,1.15,4.51,2.18,6.65,3.29a161.32,161.32,0,0,1,22.87,14.36,2.36,2.36,0,0,1,1.21,2.43c-.36,2.56-.63,5.15-.93,7.72-.18,1.65-.34,3.29-.53,4.94-.31,2.61-.64,5.23-.93,7.84-.27,2.31-.49,4.63-.75,6.93-.3,2.66-.64,5.31-.94,8-.26,2.39-.47,4.78-.75,7.17s-.63,5-.93,7.49c-.19,1.68-.31,3.37-.5,5.06-.3,2.54-.63,5.07-.92,7.61-.19,1.64-.35,3.29-.52,4.93-.24,2.39-.46,4.79-.75,7.17,0,.25-.4.49-.66.66s-.39,0-.59,0H118.92Z"/></svg>